# xmcd
#
# Track frame offsets:
# 180
# 42862
# 65657
# 91407
# 106638
# 124247
# 160922
# 176184
# 194361
# 214444
#
# Disc length: 3294 seconds
#
# Revision: 0
# Processed by: cddbd v1.5.1PL0 Copyright (c) Steve Scherf et al.
# Submitted via: Audion 3.0.2 (http://www.panic.com/audion/)
#
DISCID=900cdc0a
DTITLE=Globi - Globi und Panda
DYEAR=1900
DGENRE=
TTITLE0=De Globi tifft dä Panda im Zoo
TTITLE1=De Globi und de Panda fahred stromabwärts
TTITLE2=De sinkendi Oltanker und dWasservögel
TTITLE3=Im Schlepptau vo me ne Wal
TTITLE4=Landig z Weschtafrika
TTITLE5=De Tierfänger im eigene Chefi
TTITLE6=Gfesslet im urwald am Amazoas
TTITLE7=Sturm, lis und Pinguin z Südamerika
TTITLE8=De Globi befreit en Delphin und e Schildchote
TTITLE9=Im Tandem dur China
EXTD=
EXTT0=
EXTT1=
EXTT2=
EXTT3=
EXTT4=
EXTT5=
EXTT6=
EXTT7=
EXTT8=
EXTT9=
PLAYORDER=
